<svg width="15" height="15" viewBox="0 0 15 15" fill="none" xmlns="http://www.w3.org/2000/svg">
<mask id="mask0_1395_724" style="mask-type:alpha" maskUnits="userSpaceOnUse" x="0" y="0" width="15" height="15">
<rect width="15" height="15" fill="#D9D9D9"/>
</mask>
<g mask="url(#mask0_1395_724)">
<path d="M7.5 14.375L3 11C2.84375 10.8854 2.72135 10.7396 2.63281 10.5625C2.54427 10.3854 2.5 10.1979 2.5 10V2.5C2.5 2.15625 2.6224 1.86198 2.86719 1.61719C3.11198 1.3724 3.40625 1.25 3.75 1.25H11.25C11.5938 1.25 11.888 1.3724 12.1328 1.61719C12.3776 1.86198 12.5 2.15625 12.5 2.5V10C12.5 10.1979 12.4557 10.3854 12.3672 10.5625C12.2786 10.7396 12.1562 10.8854 12 11L7.5 14.375ZM6.84375 9.375L10.375 5.84375L9.5 4.9375L6.84375 7.59375L5.53125 6.28125L4.625 7.15625L6.84375 9.375Z" fill="#1A1A1A" fill-opacity="0.4"/>
</g>
</svg>
